<?xml version="1.0" standalone="no"?><svg xmlns="http://www.w3.org/2000/svg" viewBox="0 0 1440 320"><path fill="#fff" fill-opacity="1" d="M0,256L26.7,218.7C53.3,181,107,107,160,112C213.3,117,267,203,320,213.3C373.3,224,427,160,480,149.3C533.3,139,587,181,640,170.7C693.3,160,747,96,800,80C853.3,64,907,96,960,144C1013.3,192,1067,256,1120,245.3C1173.3,235,1227,149,1280,133.3C1333.3,117,1387,171,1413,197.3L1440,224L1440,320L1413.3,320C1386.7,320,1333,320,1280,320C1226.7,320,1173,320,1120,320C1066.7,320,1013,320,960,320C906.7,320,853,320,800,320C746.7,320,693,320,640,320C586.7,320,533,320,480,320C426.7,320,373,320,320,320C266.7,320,213,320,160,320C106.7,320,53,320,27,320L0,320Z"></path></svg>