<?xml version="1.0" standalone="no"?><svg xmlns="http://www.w3.org/2000/svg" viewBox="0 0 1440 320"><path fill="#fff" fill-opacity="1" d="M0,288L24,250.7C48,213,96,139,144,101.3C192,64,240,64,288,64C336,64,384,64,432,96C480,128,528,192,576,229.3C624,267,672,277,720,272C768,267,816,245,864,197.3C912,149,960,75,1008,74.7C1056,75,1104,149,1152,197.3C1200,245,1248,267,1296,266.7C1344,267,1392,245,1416,234.7L1440,224L1440,320L1416,320C1392,320,1344,320,1296,320C1248,320,1200,320,1152,320C1104,320,1056,320,1008,320C960,320,912,320,864,320C816,320,768,320,720,320C672,320,624,320,576,320C528,320,480,320,432,320C384,320,336,320,288,320C240,320,192,320,144,320C96,320,48,320,24,320L0,320Z"></path></svg>